<svg xmlns="http://www.w3.org/2000/svg" version="1.1" xmlns:xlink="http://www.w3.org/1999/xlink" xmlns:svgjs="http://svgjs.dev/svgjs" viewBox="0 0 1422 800"><defs><linearGradient x1="50%" y1="0%" x2="50%" y2="100%" id="oooscillate-grad"><stop stop-color="hsl(206, 75%, 49%)" stop-opacity="1" offset="0%"></stop><stop stop-color="hsl(331, 90%, 56%)" stop-opacity="1" offset="100%"></stop></linearGradient></defs><g stroke-width="2" stroke="url(#oooscillate-grad)" fill="none" stroke-linecap="round"><path d="M 0 702 Q 355.5 -100 711 400 Q 1066.5 900 1422 702"></path><path d="M 0 675 Q 355.5 -100 711 400 Q 1066.5 900 1422 675"></path><path d="M 0 648 Q 355.5 -100 711 400 Q 1066.5 900 1422 648"></path><path d="M 0 621 Q 355.5 -100 711 400 Q 1066.5 900 1422 621"></path><path d="M 0 594 Q 355.5 -100 711 400 Q 1066.5 900 1422 594"></path><path d="M 0 567 Q 355.5 -100 711 400 Q 1066.5 900 1422 567"></path><path d="M 0 540 Q 355.5 -100 711 400 Q 1066.5 900 1422 540"></path><path d="M 0 513 Q 355.5 -100 711 400 Q 1066.5 900 1422 513"></path><path d="M 0 486 Q 355.5 -100 711 400 Q 1066.5 900 1422 486"></path><path d="M 0 459 Q 355.5 -100 711 400 Q 1066.5 900 1422 459"></path><path d="M 0 432 Q 355.5 -100 711 400 Q 1066.5 900 1422 432"></path><path d="M 0 405 Q 355.5 -100 711 400 Q 1066.5 900 1422 405"></path><path d="M 0 378 Q 355.5 -100 711 400 Q 1066.5 900 1422 378"></path><path d="M 0 351 Q 355.5 -100 711 400 Q 1066.5 900 1422 351"></path><path d="M 0 324 Q 355.5 -100 711 400 Q 1066.5 900 1422 324"></path><path d="M 0 297 Q 355.5 -100 711 400 Q 1066.5 900 1422 297"></path><path d="M 0 270 Q 355.5 -100 711 400 Q 1066.5 900 1422 270"></path><path d="M 0 243 Q 355.5 -100 711 400 Q 1066.5 900 1422 243"></path><path d="M 0 216 Q 355.5 -100 711 400 Q 1066.5 900 1422 216"></path><path d="M 0 189 Q 355.5 -100 711 400 Q 1066.5 900 1422 189"></path><path d="M 0 162 Q 355.5 -100 711 400 Q 1066.5 900 1422 162"></path><path d="M 0 135 Q 355.5 -100 711 400 Q 1066.5 900 1422 135"></path><path d="M 0 108 Q 355.5 -100 711 400 Q 1066.5 900 1422 108"></path><path d="M 0 81 Q 355.5 -100 711 400 Q 1066.5 900 1422 81"></path><path d="M 0 54 Q 355.5 -100 711 400 Q 1066.5 900 1422 54"></path></g></svg>